<svg width="38" height="38" viewBox="0 0 38 38" fill="none" xmlns="http://www.w3.org/2000/svg">
<rect width="37.0391" height="37.0391" rx="18.5196" fill="#292929"/>
<path d="M29.7084 27.5148L28.0344 25.8392C27.8582 25.751 27.7701 25.4864 27.7701 25.31V11.9054C27.7701 11.729 27.8582 11.4645 28.0344 11.2881L29.7084 9.34795V9.25977H23.7175L19.2243 20.6361L14.1144 9.25977H7.94728V9.34795L9.5331 11.5527C9.88551 11.9054 9.97361 12.4345 9.97361 12.8755V22.5762C10.0617 23.1053 9.97361 23.7227 9.70931 24.2518L7.33057 27.5148V27.6029H13.6739V27.5148L11.2951 24.34C11.0308 23.8108 10.9427 23.2817 11.0308 22.6644V13.8456C11.1189 14.0219 11.207 14.0219 11.2951 14.3747L17.286 27.7793H17.3741L23.1888 13.2282C23.1007 13.7574 23.1007 14.3747 23.1007 14.8156V25.2219C23.1007 25.4864 23.0126 25.6628 22.8364 25.8392L21.0744 27.5148V27.6029H29.7084V27.5148Z" fill="white"/>
</svg>
