<svg width="46" height="30" viewBox="0 0 46 30" fill="none" xmlns="http://www.w3.org/2000/svg">
<path fill-rule="evenodd" clip-rule="evenodd" d="M0.25 15C0.25 14.569 0.421205 14.1557 0.725951 13.851C1.0307 13.5462 1.44402 13.375 1.875 13.375H40.2023L29.9745 3.15051C29.6694 2.84538 29.4979 2.43153 29.4979 2.00001C29.4979 1.56849 29.6694 1.15464 29.9745 0.849508C30.2796 0.544376 30.6935 0.372955 31.125 0.372955C31.5565 0.372955 31.9704 0.544376 32.2755 0.849508L45.2755 13.8495C45.4268 14.0005 45.5469 14.1798 45.6288 14.3772C45.7107 14.5746 45.7529 14.7863 45.7529 15C45.7529 15.2138 45.7107 15.4254 45.6288 15.6228C45.5469 15.8202 45.4268 15.9996 45.2755 16.1505L32.2755 29.1505C31.9704 29.4556 31.5565 29.6271 31.125 29.6271C30.6935 29.6271 30.2796 29.4556 29.9745 29.1505C29.6694 28.8454 29.4979 28.4315 29.4979 28C29.4979 27.5685 29.6694 27.1546 29.9745 26.8495L40.2023 16.625H1.875C1.44402 16.625 1.0307 16.4538 0.725951 16.1491C0.421205 15.8443 0.25 15.431 0.25 15V15Z" fill="black"/>
</svg>
