<svg width="36" height="38" viewBox="0 0 36 38" fill="none" xmlns="http://www.w3.org/2000/svg">
<rect x="0.050293" width="35.9497" height="37.0391" rx="17.9749" fill="#0077B5"/>
<path d="M28.0049 27.2585C26.8253 27.2295 25.6738 27.2295 24.4942 27.2585C24.2414 27.2585 24.1853 27.2006 24.1853 26.9402C24.1853 24.7988 24.1853 22.6286 24.1853 20.4873C24.1853 19.9953 24.1572 19.5034 24.0168 19.0404C23.5955 17.5357 21.9103 16.9859 20.7026 17.9987C20.0567 18.5195 19.8039 19.243 19.8039 20.1111C19.8039 22.1366 19.8039 24.1622 19.8039 26.1878C19.8039 26.4482 19.7758 26.7087 19.8039 26.998C19.832 27.2295 19.7196 27.2874 19.523 27.2585C18.3154 27.2585 17.1358 27.2585 15.9281 27.2585C15.7034 27.2585 15.6472 27.2006 15.6472 26.9691C15.6753 25.1461 15.6753 23.3231 15.6753 21.4711C15.6753 19.214 15.6753 16.957 15.6472 14.7288C15.6472 14.4684 15.7034 14.4105 15.9281 14.4105C17.1358 14.4105 18.3154 14.4105 19.523 14.4105C19.7477 14.4105 19.8039 14.4684 19.8039 14.6999C19.8039 15.1629 19.8039 15.6259 19.8039 16.1757C19.8882 16.0889 19.9162 16.0599 19.9443 16.031C21.0397 14.3816 22.5844 13.9186 24.41 14.208C26.5164 14.5552 27.8645 16.0599 28.2015 18.3749C28.2858 18.9247 28.3139 19.4745 28.3139 20.0243C28.3139 22.3392 28.3139 24.6252 28.3139 26.9402C28.3139 27.1717 28.2577 27.2585 28.0049 27.2585Z" fill="white"/>
<path d="M13.4003 20.8345C13.4003 22.8601 13.4003 24.8856 13.4003 26.9112C13.4003 27.1717 13.3442 27.2585 13.0914 27.2585C11.9118 27.2295 10.7322 27.2585 9.55259 27.2585C9.3279 27.2585 9.27173 27.2006 9.27173 26.9691C9.27173 22.889 9.27173 18.78 9.27173 14.6999C9.27173 14.4973 9.3279 14.4105 9.55259 14.4105C10.7603 14.4105 11.968 14.4105 13.1756 14.4105C13.4284 14.4105 13.4565 14.4973 13.4565 14.7288C13.4003 16.7544 13.4003 18.78 13.4003 20.8345Z" fill="white"/>
<path d="M13.597 11.0539C13.3161 12.2113 12.1646 12.8769 10.8446 12.6454C9.44032 12.4139 8.65392 10.996 9.15946 9.60702C9.49649 8.73892 10.311 8.21806 11.3501 8.247C12.9229 8.21806 13.9621 9.52021 13.597 11.0539Z" fill="white"/>
</svg>
