<svg width="43" height="32" viewBox="0 0 43 32" fill="none" xmlns="http://www.w3.org/2000/svg">
<g clip-path="url(#clip0)">
<path d="M9.91302 31.7049V15.5143L4.82217 10.9206L0.25708 8.37149V28.8476C0.25708 30.4286 1.55573 31.7049 3.15393 31.7049H9.91302Z" fill="#4285F4"/>
<path d="M33.0872 31.7048H39.8463C41.4493 31.7048 42.7431 30.4238 42.7431 28.8476V8.37164L37.5724 11.2914L33.0872 15.5143V31.7048Z" fill="#34A853"/>
<path d="M9.91294 15.5142L9.22021 9.18809L9.91294 3.13336L21.5 11.7048L33.0871 3.13336L33.8621 8.8612L33.0871 15.5142L21.5 24.0857L9.91294 15.5142Z" fill="#EA4335"/>
<path d="M33.0872 3.13334V15.5142L42.7431 8.37142V4.56186C42.7431 1.02861 38.6538 -0.985595 35.791 1.13337L33.0872 3.13334Z" fill="#FBBC04"/>
<path d="M0.25708 8.37134L4.69803 11.6566L9.91302 15.5141V3.13326L7.20919 1.1333C4.34138 -0.985836 0.25708 1.02853 0.25708 4.56162V8.37118V8.37134Z" fill="#C5221F"/>
</g>
<defs>
<clipPath id="clip0">
<rect width="42.486" height="31.5922" fill="white" transform="translate(0.25708 0.268158)"/>
</clipPath>
</defs>
</svg>
