<svg width="128" height="11" viewBox="0 0 128 11" fill="none" xmlns="http://www.w3.org/2000/svg">
<g clip-path="url(#clip0)">
<path d="M5.20711 0H7.5906L12.9578 10.983H10.5914L9.70546 9.13272H3.22944L2.37206 10.983H0L5.20711 0ZM8.82522 7.29938L6.42458 2.30864L4.08681 7.29938H8.82522Z" fill="#020203"/>
<path d="M14.6725 0H16.9246L31.4313 5.98663V0H33.6833V10.983H31.4313V8.35185L16.9188 2.3822V10.983H14.6668V0H14.6725Z" fill="#020203"/>
<path d="M40.5937 0H42.9772L48.3444 10.983H45.978L45.0921 9.13272H38.616L37.7587 10.983H35.3866L40.5937 0ZM44.2061 7.29938L41.8055 2.30864L39.4677 7.29938H44.2061Z" fill="#020203"/>
<path d="M56.478 0H58.9701L62.4567 8.37449L65.9434 0H68.4355L63.5713 10.983H61.3421L56.478 0Z" fill="#020203"/>
<path d="M69.813 0H72.0764V10.983H69.813V0Z" fill="#020203"/>
<path d="M74.9458 0H77.1978V9.03086H83.651V10.983H74.9515V0H74.9458Z" fill="#020203"/>
<path d="M85.823 0H88.075V9.03086H94.5282V10.983H85.8287V0H85.823Z" fill="#020203"/>
<path d="M100.49 0H102.873L108.24 10.983H105.874L104.988 9.13272H98.5064L97.649 10.983H95.277L100.49 0ZM104.102 7.29938L101.702 2.30864L99.3638 7.29938H104.102Z" fill="#020203"/>
<path d="M108.995 0.0169678H123.01C123.862 0.0169678 124.599 0.107503 125.222 0.282914C125.845 0.458326 126.365 0.712955 126.777 1.0468C127.188 1.38065 127.497 1.7824 127.697 2.26337C127.897 2.73868 128 3.28189 128 3.88734C128 4.29475 127.949 4.68518 127.851 5.05298C127.754 5.42077 127.6 5.76028 127.394 6.06584C127.188 6.37705 126.931 6.64866 126.617 6.89197C126.302 7.13528 125.937 7.33333 125.519 7.49176L127.931 11.0057H125.176L123.09 7.88785H123.027L111.247 7.88219V11.0113H108.995V0.0169678ZM123.062 5.94701C123.49 5.94701 123.862 5.89608 124.182 5.79989C124.502 5.7037 124.771 5.56224 124.982 5.38682C125.199 5.21141 125.359 4.99073 125.462 4.7361C125.571 4.48147 125.622 4.19855 125.622 3.88168C125.622 3.27057 125.411 2.79526 124.982 2.46141C124.553 2.12756 123.913 1.95781 123.056 1.95781H111.236V5.94701H123.062Z" fill="#020203"/>
</g>
<defs>
<clipPath id="clip0">
<rect width="128" height="11" fill="white"/>
</clipPath>
</defs>
</svg>
